<svg id="Layer_1" data-name="Layer 1" xmlns="http://www.w3.org/2000/svg" xmlns:xlink="http://www.w3.org/1999/xlink" viewBox="0 0 24.31 21.29"><defs><style>.cls-1{fill:url(#linear-gradient);}.cls-2{opacity:0.3;}</style><linearGradient id="linear-gradient" x1="22.97" y1="34.39" x2="22.97" y2="12.28" gradientTransform="matrix(1, 0, 0, -1, 0, 50)" gradientUnits="userSpaceOnUse"><stop offset="0" stop-color="#2234a7"/><stop offset="0.16" stop-color="#3c2da2"/><stop offset="0.51" stop-color="#7f1c96"/><stop offset="1" stop-color="#e90082"/></linearGradient></defs><title>logoColored</title><g id="Layer_1-2" data-name="Layer 1"><path class="cls-1" d="M35.12,25.76q0,5.37-3.28,8.21c-2.18,1.93-5.26,2.89-9.21,2.89H10.81l1.08-2.76a3.29,3.29,0,0,1,3-2h7.87a5.48,5.48,0,0,0,4.29-1.53A6.73,6.73,0,0,0,28.47,26a6.27,6.27,0,0,0-1.29-4.34,5.1,5.1,0,0,0-3.93-1.41H21.36V32.13H14.94V15.56h8.23q5.71,0,8.84,2.63C34.09,19.93,35.13,22.46,35.12,25.76Z" transform="translate(-10.81 -15.56)"/><polygon class="cls-2" points="10.55 11.86 4.13 16.57 10.55 16.57 10.55 11.86"/></g></svg>