<svg id="Layer_1" data-name="Layer 1" xmlns="http://www.w3.org/2000/svg" xmlns:xlink="http://www.w3.org/1999/xlink" viewBox="0 0 50 50"><defs><style>.cls-1{fill:url(#linear-gradient);}.cls-2{fill:url(#linear-gradient-2);}.cls-3{fill:url(#linear-gradient-3);}</style><linearGradient id="linear-gradient" x1="31.24" y1="35.78" x2="31.24" y2="15.32" gradientTransform="matrix(1, 0, 0, -1, 0, 50)" gradientUnits="userSpaceOnUse"><stop offset="0" stop-color="#00ccd6"/><stop offset="1" stop-color="#a70cb1"/></linearGradient><linearGradient id="linear-gradient-2" x1="41.87" y1="35.78" x2="41.87" y2="15.32" xlink:href="#linear-gradient"/><linearGradient id="linear-gradient-3" x1="15.63" y1="35.6" x2="15.63" y2="13.48" xlink:href="#linear-gradient"/></defs><title>logo</title><g id="Layer_1-2" data-name="Layer 1"><path class="cls-1" d="M37.36,14.35H29.58a4.24,4.24,0,0,0-4.45,4h0v.71h5.8v16.6h6.43Z"/><rect class="cls-2" x="39.21" y="14.35" width="5.32" height="4.71"/><path class="cls-3" d="M27.78,24.55q0,5.37-3.28,8.21c-2.18,1.93-5.26,2.89-9.21,2.89H3.47l1.08-2.76a3.29,3.29,0,0,1,3.05-2h7.87a5.51,5.51,0,0,0,4.29-1.52,6.77,6.77,0,0,0,1.37-4.66,6.24,6.24,0,0,0-1.29-4.33A5.07,5.07,0,0,0,15.91,19H14V30.92H7.6V14.35h8.23q5.72,0,8.84,2.63T27.78,24.55Z"/><polygon points="14.02 26.21 7.6 30.92 14.02 30.92 14.02 26.21"/></g></svg>