<svg width="149" height="154" viewBox="0 0 149 154" fill="none" xmlns="http://www.w3.org/2000/svg">
<path d="M149 64.0945V36.1967H118.076V4.02571e-05C102.549 4.02571e-05 89.9624 4.02571e-05 89.9624 4.02571e-05V36.1967V64.0945V94.7817C89.9624 94.7822 89.9624 94.7822 89.9624 94.7827C89.9619 111.731 76.1166 125.469 59.0376 125.469C41.9586 125.469 28.1133 111.73 28.1133 94.7817C28.1133 93.1071 28.2535 91.4649 28.5137 89.8626C30.8869 75.2537 43.647 64.0945 59.0376 64.0945H85.0428V36.1967H59.0376C28.1536 36.1967 2.7363 59.8523 0.210069 89.8626C0.0733035 91.4851 0 93.1248 0 94.7817C0 127.086 26.4844 153.367 59.0376 153.367C77.0518 153.367 93.204 145.317 104.042 132.654C105.119 133.903 106.252 135.103 107.431 136.259C110.64 139.409 114.208 142.211 118.076 144.599C127.075 150.155 137.669 153.367 149 153.367V125.253C136.971 125.253 126.555 118.606 121.441 108.711C119.294 104.556 118.076 99.8327 118.076 94.7817V64.0945H149Z" fill="url(#paint0_linear_108_113)"/>
<defs>
<linearGradient id="paint0_linear_108_113" x1="74.5" y1="153.367" x2="74.5" y2="4.57764e-05" gradientUnits="userSpaceOnUse">
<stop stop-color="#332BDB"/>
<stop offset="0.510417" stop-color="#6D36BF"/>
<stop offset="0.989583" stop-color="#AD32B0"/>
</linearGradient>
</defs>
</svg>
