<svg id="Group_1" data-name="Group 1" xmlns="http://www.w3.org/2000/svg" xmlns:xlink="http://www.w3.org/1999/xlink" viewBox="477 351 342 342">
  <defs>
    <style>
      .cls-1 {
        fill: url(#linear-gradient);
      }

      .cls-2 {
        fill: #fff;
      }
    </style>
    <linearGradient id="linear-gradient" x1="0.5" x2="0.5" y2="1" gradientUnits="objectBoundingBox">
      <stop offset="0" stop-color="#c174d9"/>
      <stop offset="0.507" stop-color="#722ec3"/>
      <stop offset="1" stop-color="#1723b2"/>
    </linearGradient>
  </defs>
  <path id="Rectangle_1" data-name="Rectangle 1" class="cls-1" d="M0,0H171A171,171,0,0,1,342,171v0A171,171,0,0,1,171,342H0a0,0,0,0,1,0,0V0A0,0,0,0,1,0,0Z" transform="translate(477 351)"/>
  <path id="Rectangle_2" data-name="Rectangle 2" class="cls-2" d="M0,0H92a92,92,0,0,1,92,92v0a92,92,0,0,1-92,92H0a0,0,0,0,1,0,0V0A0,0,0,0,1,0,0Z" transform="translate(556 430)"/>
</svg>
